<svg height="245" version="1.1" width="386" xmlns="http://www.w3.org/2000/svg" xmlns:xlink="http://www.w3.org/1999/xlink" style="overflow: hidden; position: relative; left: -0.15625px;"><desc style="-webkit-tap-highlight-color: rgba(0, 0, 0, 0);">Created with Raphaël 2.1.2</desc><defs style="-webkit-tap-highlight-color: rgba(0, 0, 0, 0);"></defs><path style="-webkit-tap-highlight-color: rgba(0, 0, 0, 0); opacity: 0;" fill="none" stroke="#ff8acc" d="M193,197.5A75,75,0,0,0,264.03058844420985,146.57603591269296" stroke-width="2" opacity="0"></path><path style="-webkit-tap-highlight-color: rgba(0, 0, 0, 0);" fill="#ff8acc" stroke="#ffffff" d="M193,200.5A78,78,0,0,0,266.8718119819782,147.53907734920068L294.81051010336745,157.00898480819325A107.5,107.5,0,0,1,193,230Z" stroke-width="3"></path><path style="-webkit-tap-highlight-color: rgba(0, 0, 0, 0); opacity: 1;" fill="none" stroke="#5b69bc" d="M264.03058844420985,146.57603591269296A75,75,0,0,0,125.7429080941063,89.31139369659871" stroke-width="2" opacity="1"></path><path style="-webkit-tap-highlight-color: rgba(0, 0, 0, 0);" fill="#5b69bc" stroke="#ffffff" d="M266.8718119819782,147.53907734920068A78,78,0,0,0,123.05262441787056,87.98384944446265L92.11436214115946,72.71709054489806A112.5,112.5,0,0,1,299.5458826663148,158.61405386903942Z" stroke-width="3"></path><path style="-webkit-tap-highlight-color: rgba(0, 0, 0, 0); opacity: 0;" fill="none" stroke="#35b8e0" d="M125.7429080941063,89.31139369659871A75,75,0,0,0,192.9764380554856,197.4999962988984" stroke-width="2" opacity="0"></path><path style="-webkit-tap-highlight-color: rgba(0, 0, 0, 0);" fill="#35b8e0" stroke="#ffffff" d="M123.05262441787056,87.98384944446265A78,78,0,0,0,192.97549557770503,200.49999615085432L192.96622787952936,229.99999469508768A107.5,107.5,0,0,1,96.59816826821904,74.92966429845814Z" stroke-width="3"></path><text style="-webkit-tap-highlight-color: rgba(0, 0, 0, 0); text-anchor: middle; font-family: Arial; font-size: 15px; font-weight: 800;" x="193" y="112.5" text-anchor="middle" font-family="&quot;Arial&quot;" font-size="15px" stroke="none" fill="#000000" font-weight="800" transform="matrix(1.1638,0,0,1.1638,-31.6121,-20.2284)" stroke-width="0.8592592592592593"><tspan style="-webkit-tap-highlight-color: rgba(0, 0, 0, 0);" dy="6">In-Store Sales</tspan></text><text style="-webkit-tap-highlight-color: rgba(0, 0, 0, 0); text-anchor: middle; font-family: Arial; font-size: 14px;" x="193" y="132.5" text-anchor="middle" font-family="&quot;Arial&quot;" font-size="14px" stroke="none" fill="#000000" transform="matrix(1.5625,0,0,1.5625,-108.5625,-70.0313)" stroke-width="0.64"><tspan style="-webkit-tap-highlight-color: rgba(0, 0, 0, 0);" dy="5">30</tspan></text></svg>
