<?xml version="1.0" encoding="utf-8"?>
<!-- Generator: Adobe Illustrator 19.0.0, SVG Export Plug-In . SVG Version: 6.00 Build 0)  -->
<svg version="1.1" id="Layer_1" xmlns="http://www.w3.org/2000/svg" xmlns:xlink="http://www.w3.org/1999/xlink" x="0px" y="0px"
	 viewBox="0 0 50 50" style="enable-background:new 0 0 50 50;" xml:space="preserve">
<style type="text/css">
	.st0{fill:#F8F8F8;}
	.st1{fill:#FFFFFF;}
	.st2{fill:#AED1CF;}
</style>
<g>
	<path class="st0" d="M-211,275c0.3,0.3,0.7,0.7,1,1C-210.9,276.2-211.2,275.9-211,275z"/>
	<path class="st0" d="M268,276c0.3-0.3,0.7-0.7,1-1C269.2,275.9,268.9,276.2,268,276z"/>
</g>
<g>
	<path class="st1" d="M25,0C11.2,0,0,11.2,0,25c0,7.2,3.1,13.7,8,18.3c4.5,4.2,10.4,6.7,17,6.7c6.7,0,12.7-2.6,17.2-6.9
		C47,38.6,50,32.1,50,25C50,11.2,38.8,0,25,0z"/>
	<path class="st2" d="M35.9,40.3c-1.4-0.8-2.6-1.7-3.5-3c-1.1-1.6-1.3-3.3-1.3-5.2c0-0.7,0.3-1.4,0.7-1.9c1.2-1.3,1.9-2.8,2.2-4.5
		c0.1-0.9,0.4-1.6,1.3-2c0.4-0.1,0.6-0.5,0.8-0.8c0.4-0.8,0.5-1.7,0.6-2.6c0.1-1,0-2-0.8-2.7c-0.1-0.1-0.1-0.2-0.1-0.3
		c0.2-1,0.3-2.1,0.5-3.1c0.2-1.4,0.4-2.8,0.1-4.2c-0.7-3.6-2.8-6-6.2-7.3c-2.7-1-5.4-1-8.1-0.4c-4.7,1-7.5,4.8-7.7,9.4
		c0,1.3,0.2,2.7,0.5,4c0.1,0.8,0.5,1.7-0.3,2.4c-0.1,0.1-0.1,0.3-0.2,0.4c-0.4,1-0.2,2.1,0,3.1c0.2,1,0.6,1.8,1.6,2.3
		c0.2,0.1,0.4,0.3,0.5,0.5c0.2,0.4,0.3,0.8,0.4,1.2c0.3,1.5,0.8,3,1.9,4.2c0.5,0.6,0.9,1.2,1,2c0.1,0.9,0,1.8-0.2,2.7
		c-0.2,0.8-0.4,1.6-0.8,2.3c-1,1.7-2.6,2.8-4.4,3.8c-2,1.1-4.1,1.8-6.2,2.7c4.5,4.2,10.4,6.7,17,6.7c6.7,0,12.7-2.6,17.2-6.9
		C40.1,42.2,37.9,41.5,35.9,40.3z"/>
</g>
</svg>
